HIERARCHY
ROOT Hips
{
	OFFSET 0.0000 0.0000 0.0000
	CHANNELS 6 Xposition Yposition Zposition Zrotation Xrotation Yrotation
	JOINT Ab
	{
		OFFSET -0.0000 8.0846 -0.0000
		CHANNELS 3 Zrotation Xrotation Yrotation
		JOINT Chest
		{
			OFFSET -0.0000 25.0068 -0.0000
			CHANNELS 3 Zrotation Xrotation Yrotation
			JOINT Neck
			{
				OFFSET -0.0000 25.0068 0.0000
				CHANNELS 3 Zrotation Xrotation Yrotation
				JOINT Head
				{
					OFFSET -0.0000 10.7556 0.0000
					CHANNELS 3 Zrotation Xrotation Yrotation
					End Site
					{
						OFFSET -0.0000 16.6222 0.0000
					}
				}
			}
			JOINT LeftCollar
			{
				OFFSET -0.0000 25.0068 0.0000
				CHANNELS 3 Zrotation Xrotation Yrotation
				JOINT LeftShoulder
				{
					OFFSET 19.5556 -0.0000 0.0000
					CHANNELS 3 Zrotation Xrotation Yrotation
					JOINT LeftElbow
					{
						OFFSET 27.1828 0.0000 0.0000
						CHANNELS 3 Zrotation Xrotation Yrotation
						JOINT LeftWrist
						{
							OFFSET 23.3157 0.0000 0.0000
							CHANNELS 3 Zrotation Xrotation Yrotation
							End Site
							{
								OFFSET 0.0000 -14.6667 0.0000
							}
						}
					}
				}
			}
			JOINT RightCollar
			{
				OFFSET -0.0000 25.0068 0.0000
				CHANNELS 3 Zrotation Xrotation Yrotation
				JOINT RightShoulder
				{
					OFFSET -19.5556 0.0000 0.0000
					CHANNELS 3 Zrotation Xrotation Yrotation
					JOINT RightElbow
					{
						OFFSET -27.1828 0.0000 0.0000
						CHANNELS 3 Zrotation Xrotation Yrotation
						JOINT RightWrist
						{
							OFFSET -23.3157 0.0000 0.0000
							CHANNELS 3 Zrotation Xrotation Yrotation
							End Site
							{
								OFFSET -0.0000 -14.6667 0.0000
							}
						}
					}
				}
			}
		}
	}
	JOINT LeftHip
	{
		OFFSET 11.7333 0.0000 0.0000
		CHANNELS 3 Zrotation Xrotation Yrotation
		JOINT LeftKnee
		{
			OFFSET -0.0000 -40.8688 0.0000
			CHANNELS 3 Zrotation Xrotation Yrotation
			JOINT LeftAnkle
			{
				OFFSET -0.0000 -44.4337 0.0000
				CHANNELS 3 Zrotation Xrotation Yrotation
				End Site
				{
					OFFSET -0.0000 -4.8889 16.6222
				}
			}
		}
	}
	JOINT RightHip
	{
		OFFSET -11.7333 0.0000 0.0000
		CHANNELS 3 Zrotation Xrotation Yrotation
		JOINT RightKnee
		{
			OFFSET -0.0000 -40.8688 0.0000
			CHANNELS 3 Zrotation Xrotation Yrotation
			JOINT RightAnkle
			{
				OFFSET -0.0000 -44.4337 0.0000
				CHANNELS 3 Zrotation Xrotation Yrotation
				End Site
				{
					OFFSET -0.0000 -4.8889 16.6222
				}
			}
		}
	}
}
MOTION
Frames: 19
Frame Time: 0.010000
-2.3550 88.5730 190.3211 2.2609 359.9458 176.4906 2.1190 359.2534 358.0888 358.8282 9.8024 358.1768 358.9732 341.7608 0.6047 4.7689 8.9231 0.3939 338.6685 358.4423 8.1986 299.8023 28.5900 357.7989 14.7661 354.8766 322.0599 83.8979 0.5863 339.3980 22.4863 358.8542 354.1858 60.0483 45.1173 5.5221 338.3797 354.1200 30.1203 275.1927 353.3193 18.8903 3.0146 359.4054 356.9340 359.2573 10.2264 356.9545 355.4959 350.5670 22.3505 0.2669 352.7192 0.3701 358.6746 19.8687 10.0660 357.5003 343.6539 336.7171 
-2.3622 88.5752 190.3002 2.2535 359.9477 176.4878 2.1025 359.2743 358.0867 358.8359 9.8005 358.1741 358.8643 341.7219 0.5575 4.8734 8.9933 0.3526 338.6566 358.4642 8.2422 299.8245 28.5275 357.7954 14.7259 354.9203 322.0849 83.8246 0.5698 339.3706 22.4956 358.8669 354.2287 59.9854 45.1559 5.5678 338.3831 354.1116 30.1684 275.1829 353.3676 18.9861 3.0023 359.4388 356.8102 359.2301 10.1952 357.0646 354.2961 350.3460 22.1370 0.2499 352.7480 0.3819 358.6838 19.8447 10.0519 357.4626 343.6714 336.7351 
-2.3681 88.5769 190.2891 2.2497 359.9156 176.4821 2.0819 359.2599 358.0846 358.8613 9.8185 358.1694 358.7498 341.6451 0.4886 4.9260 9.0924 0.2941 338.6576 358.4416 8.2518 299.8031 28.4787 357.8163 14.7448 354.9017 322.0617 83.8508 0.5495 339.3460 22.4877 358.8403 354.2624 59.9289 45.2220 5.6301 338.3090 354.0863 30.2071 275.2259 353.3662 18.9716 2.9995 359.4029 356.7928 359.2198 10.2227 357.0719 355.4770 350.5295 22.3640 0.2387 352.7263 0.4075 358.6958 19.8393 10.0344 357.4930 343.6398 336.7377 
-2.3766 88.5786 190.2708 2.2431 359.9053 176.4803 2.0485 359.2641 358.0953 358.8852 9.8409 358.1790 358.6408 341.5611 0.4110 4.9881 9.2075 0.2233 338.6626 358.4683 8.2502 299.8029 28.3568 357.8286 14.6597 354.9616 322.0559 83.8721 0.5679 339.2671 22.4769 358.8571 354.2746 59.8507 45.2388 5.7218 338.3949 354.1018 30.2516 275.1005 353.3709 19.0523 2.9899 359.3916 356.7826 359.2094 10.2517 357.0570 354.3539 350.2992 22.1725 0.2218 352.7394 0.4270 358.7076 19.8214 10.0358 357.5044 343.6271 336.7324 
-2.3836 88.5801 190.2574 2.2421 359.8828 176.4968 2.0081 359.2689 358.1056 358.9208 9.8452 358.1857 358.4943 341.4708 0.2977 5.1152 9.3486 0.1166 338.6751 358.4533 8.2022 299.7715 28.1950 357.8883 14.6227 354.9477 321.9800 83.7588 0.6064 339.0670 22.4675 358.8505 354.2710 59.7857 45.3061 5.8096 338.3388 354.0781 30.2822 275.1379 353.3005 19.0631 2.9920 359.3497 356.7442 359.1869 10.2985 357.0624 355.4546 350.4265 22.3907 0.2097 352.7417 0.4168 358.7161 19.7944 9.9998 357.5117 343.6173 336.7719 
-2.3975 88.5818 190.2422 2.2240 359.8598 176.5032 1.9774 359.2772 358.1154 358.9168 9.8335 358.1973 358.4380 341.4545 0.2404 5.1794 9.3762 0.0663 338.6886 358.4536 8.1675 299.7572 28.0357 357.9446 14.5296 354.9995 321.9597 83.7496 0.5894 338.9478 22.4812 358.8732 354.2698 59.6837 45.3646 5.9178 338.3633 354.0712 30.3160 275.1025 353.3246 19.0459 2.9658 359.3112 356.7534 359.1876 10.3414 357.0129 354.4741 350.2185 22.2215 0.1706 352.7397 0.4136 358.7315 19.7744 10.0224 357.4984 343.6087 336.7608 
-2.4115 88.5836 190.2246 2.2084 359.8374 176.5049 1.9398 359.2962 358.1286 358.9295 9.8011 358.2091 358.2852 341.4194 0.1401 5.3087 9.4599 359.9750 338.6896 358.4533 8.1300 299.7293 27.9037 358.0260 14.4823 354.9900 321.9075 83.6257 0.6603 338.7591 22.4830 358.8581 354.2762 59.6280 45.4639 5.9864 338.2599 354.0365 30.3380 275.1639 353.3031 19.0056 2.9544 359.2719 356.7225 359.1538 10.4001 356.9979 355.4759 350.3636 22.4465 0.1310 352.7426 0.4535 358.7727 19.7542 9.9946 357.6114 343.5543 336.7736 
-2.4286 88.5864 190.2117 2.1915 359.8059 176.5158 1.9129 359.3073 358.1264 358.9305 9.7881 358.2068 358.1262 341.3451 0.0400 5.4665 9.5654 359.8806 338.6981 358.4649 8.1271 299.7205 27.8089 358.0302 14.3740 355.0199 321.9601 83.8889 0.5483 338.7442 22.4931 358.8577 354.2820 59.5204 45.4920 6.0929 338.2926 354.0294 30.3928 275.1369 353.3103 19.0609 2.9393 359.1978 356.7461 359.1280 10.4884 356.9546 354.6066 350.1456 22.2954 0.0926 352.7315 0.4623 358.7885 19.7409 10.0040 357.6569 343.5129 336.7728 
-2.4472 88.5894 190.1980 2.1740 359.7694 176.5476 1.8956 359.3369 358.1097 358.9106 9.7288 358.1917 357.9887 341.2863 359.9449 5.6028 9.6915 359.7898 338.7123 358.4767 8.1113 299.6974 27.6376 358.0800 14.2871 355.0657 321.9516 83.9262 0.5050 338.5946 22.5245 358.8869 354.2797 59.3761 45.5103 6.2241 338.3664 354.0341 30.4592 275.1352 353.3212 19.1394 2.9194 359.1121 356.7241 359.1060 10.5842 356.9023 355.5484 350.2701 22.5159 0.0493 352.7243 0.4772 358.8159 19.7154 9.9718 357.9222 343.3199 336.7265 
-2.4748 88.5916 190.1794 2.1430 359.7373 176.5720 1.8732 359.3654 358.0943 358.8851 9.6683 358.1782 357.7680 341.2865 359.8082 5.8407 9.7237 359.6848 338.7257 358.4602 8.0929 299.6428 27.4484 358.1724 14.2370 355.0913 321.8955 83.9327 0.5297 338.4670 22.5424 358.8572 354.3122 59.3004 45.6048 6.2791 338.2678 353.9788 30.5436 275.2121 353.3484 19.1185 2.8778 359.0472 356.6989 359.0904 10.6581 356.8299 354.7355 350.0324 22.4179 359.9824 352.7160 0.4969 358.8530 19.7043 9.9432 357.7693 343.3573 336.7780 
-2.5028 88.5958 190.1681 2.1147 359.6794 176.6053 1.8354 359.3697 358.0735 358.9008 9.6327 358.1569 357.5022 341.1516 359.6794 6.0846 9.9298 359.5479 338.7230 358.4728 8.1002 299.6162 27.3465 358.2036 14.1804 355.0971 321.8994 83.8878 0.5560 338.3260 22.5384 358.8777 354.3444 59.1959 45.6498 6.3788 338.3021 353.9818 30.5873 275.2247 353.2782 19.1433 2.8426 358.9269 356.6602 359.0636 10.7739 356.8048 355.5205 350.0906 22.5880 359.9193 352.6858 0.5387 358.8976 19.6784 9.8714 357.7802 343.3126 336.7966 
-2.5374 88.5991 190.1570 2.0825 359.6126 176.6441 1.7774 359.3632 358.0667 358.9325 9.6022 358.1477 357.2149 340.9605 359.5153 6.3267 10.2381 359.4000 338.7106 358.4705 8.1683 299.6181 27.5158 358.1533 14.2903 355.0337 322.0194 83.8652 0.4544 338.4101 22.5223 358.8652 354.3496 59.0318 45.7755 6.5423 338.2314 353.9644 30.6580 275.2693 353.2934 19.0948 2.8019 358.8014 356.6181 359.0324 10.8824 356.7470 354.8709 349.8960 22.5177 359.8491 352.6498 0.5685 358.9333 19.6518 9.8107 357.8157 343.2488 336.8223 
-2.5783 88.6032 190.1395 2.0522 359.5517 176.6800 1.7147 359.3572 358.0837 358.9563 9.5819 358.1622 356.9372 340.7297 359.3262 6.5655 10.6046 359.2166 338.7079 358.4625 8.1257 299.5839 27.3515 358.2117 14.2294 355.0788 322.0130 83.9373 0.4040 338.3420 22.5164 358.8522 354.3156 58.8397 45.8597 6.7262 338.2899 353.9550 30.8322 274.8578 353.8842 19.1394 2.7552 358.6680 356.7231 359.0389 11.0310 356.5217 355.5504 349.9120 22.7139 359.7737 352.6275 0.6406 358.9898 19.6192 9.7173 357.8613 343.1730 336.8245 
-2.6244 88.6079 190.1189 2.0210 359.4946 176.7027 1.6674 359.3669 358.1018 358.9556 9.5396 358.1808 356.6566 340.5392 359.1474 6.8527 10.9300 359.0405 338.7026 358.4759 8.0957 299.5809 27.2969 358.2606 14.1823 355.1090 322.0483 84.0560 0.3104 338.3694 22.5291 358.8537 354.2751 58.6459 45.9417 6.9005 338.2748 353.9335 30.8923 275.1146 353.6055 19.1502 2.7033 358.5564 356.6849 359.0115 11.1464 356.4982 355.0312 349.7247 22.6494 359.7002 352.5945 0.7046 358.8878 19.6106 10.5058 358.1188 343.2965 336.3729 
-2.6763 88.6126 190.1037 1.9949 359.4150 176.7416 1.6345 359.3632 358.1022 358.9554 9.4997 358.1807 356.5160 340.4109 359.0345 7.0057 11.0982 358.9439 338.6879 358.4526 8.0847 299.5832 27.3143 358.3016 14.2182 355.0991 322.0407 84.1642 0.2614 338.5033 22.5389 358.8779 354.2477 58.4261 46.0371 7.0985 338.2461 353.8925 30.9706 275.3425 353.4006 19.1504 2.6574 358.4252 356.5753 358.9697 11.2439 356.5186 355.6749 349.7818 22.8272 359.6289 352.5445 0.7612 358.8677 19.5676 10.8520 358.2781 343.2908 336.1113 
-2.7321 88.6177 190.0826 1.9709 359.3451 176.7644 1.6045 359.3821 358.1082 358.9575 9.4374 358.1863 356.4407 340.3317 358.9572 7.0803 11.1792 358.8987 338.6699 358.4484 8.0877 299.5705 27.2348 358.3673 14.1670 355.1016 322.0164 84.2077 0.2385 338.4989 22.5370 358.8532 354.2427 58.2412 46.1634 7.2441 338.1560 353.8408 31.0775 275.5540 353.1416 19.1318 2.6118 358.3431 356.3730 358.9081 11.2891 356.6585 355.2312 349.6413 22.7725 359.5609 352.4955 0.8138 358.8623 19.5109 11.1564 358.4277 343.2256 335.8386 
-2.7943 88.6216 190.0575 1.9496 359.2780 176.7856 1.5711 359.3958 358.1307 358.9550 9.3945 358.2089 356.4041 340.2332 358.9084 7.1175 11.2720 358.8281 338.6592 358.4621 8.0961 299.5713 27.1869 358.3839 14.1228 355.1126 322.0499 84.2866 0.1401 338.4820 22.5244 358.8553 354.2152 58.0343 46.2852 7.4416 338.2009 353.8292 31.1958 275.5191 353.1469 19.2006 2.5584 358.2527 356.2530 358.8734 11.3584 356.7340 355.7259 349.6486 22.9009 359.4934 352.4553 0.8901 358.9016 19.5293 11.0099 358.6606 342.9034 335.8510 
-2.8612 88.6257 190.0276 1.9304 359.2112 176.8168 1.5482 359.4081 358.1340 358.9418 9.3509 358.2130 356.3093 340.1529 358.8144 7.2224 11.3244 358.7317 338.6543 358.4701 8.0731 299.5548 27.0687 358.4362 14.0562 355.1501 322.0447 84.4654 0.0218 338.5016 22.5215 358.8539 354.1826 57.8395 46.3777 7.6405 338.2214 353.8199 31.3240 275.4807 353.1733 19.3743 2.5082 358.1710 356.1853 358.8410 11.4182 356.7048 355.3424 349.4741 22.8867 359.4271 352.4239 0.9440 358.9406 19.5640 10.7443 358.7764 342.6307 336.0205 
-2.9361 88.6300 190.0036 1.9042 359.1098 176.8481 1.5252 359.3969 358.1382 358.9237 9.2893 358.2179 356.1736 340.0499 358.7198 7.3756 11.4440 358.6478 338.6502 358.4690 8.0452 299.5253 26.9116 358.5183 13.9761 355.1727 322.0198 84.6001 359.9449 338.4415 22.5225 358.8504 354.1743 57.6171 46.4501 7.8253 338.2477 353.7969 31.4833 275.5070 353.2112 19.4618 2.4436 358.0391 356.1570 358.8251 11.5025 356.6161 355.7175 349.4152 23.0705 359.3509 352.3463 0.9856 358.9562 19.5605 10.7319 359.0149 342.4466 336.0422 
